<svg xmlns="http://www.w3.org/2000/svg" width="512" height="512" viewBox="0 0 512 512" style="" data-bbox="93.915 41.801 329.922 419.521">
  <g transform="matrix(2.8805689811706543, 0, 0, 2.8805689811706543, -60.40169906616211, -119.424560546875)" stroke="#a46745" stroke-width="2">
    <path class="cls-2" d="m116.18 93.26c1.35-.89 2.52-2.09 3.39-3.61 6.91-12.06-7.94-23.15-9.74-32.68-1.8 9.53-16.65 20.62-9.74 32.68.87 1.52 2.04 2.72 3.4 3.61-1.35.88-2.53 2.09-3.4 3.61-6.91 12.06 7.95 23.15 9.74 32.68 1.8-9.53 16.65-20.62 9.74-32.68-.87-1.52-2.04-2.72-3.39-3.61Z" fill-rule="evenodd" fill="none" stroke="#a46745" stroke-miterlimit="22.93" stroke-width="2" />
    <path class="cls-2" d="m114.33 88.77c.33-1.58.31-3.26-.15-4.95-3.64-13.41-21.99-10.75-30-16.22 5.47 8.01 2.8 26.35 16.22 30 1.69.46 3.37.48 4.95.15-.33 1.58-.31 3.26.15 4.95 3.64 13.41 21.99 10.75 30 16.22-5.47-8.01-2.8-26.35-16.22-30-1.69-.46-3.37-.48-4.95-.15Z" fill-rule="evenodd" fill="none" stroke="#a46745" stroke-miterlimit="22.93" stroke-width="2" />
    <path class="cls-2" d="m109.84 86.91c-.88-1.35-2.09-2.52-3.61-3.39-12.06-6.91-23.15 7.94-32.68 9.74 9.53 1.8 20.62 16.65 32.68 9.74 1.52-.87 2.72-2.04 3.61-3.39.89 1.35 2.09 2.52 3.61 3.39 12.06 6.91 23.15-7.94 32.68-9.74-9.53-1.8-20.62-16.65-32.68-9.74-1.52.87-2.72 2.04-3.61 3.39Z" fill-rule="evenodd" fill="none" stroke="#a46745" stroke-miterlimit="22.93" stroke-width="2" />
    <path class="cls-2" d="m105.35 88.77c-1.58-.33-3.26-.31-4.95.15-13.41 3.64-10.75 21.99-16.22 30 8.01-5.47 26.35-2.8 30-16.22.46-1.69.48-3.37.15-4.95 1.58.33 3.26.31 4.95-.15 13.41-3.64 10.75-21.99 16.22-30-8.01 5.47-26.35 2.8-30 16.22-.46 1.69-.48 3.37-.15 4.95Z" fill-rule="evenodd" fill="none" stroke="#a46745" stroke-miterlimit="22.93" stroke-width="2" />
    <g stroke-width="2">
      <g stroke-width="2">
        <path class="cls-2" d="m109.84 70.77c-1.14 0-2.07-.92-2.07-2.06s.92-2.06 2.07-2.06 2.06.92 2.06 2.06-.92 2.06-2.06 2.06Z" fill-rule="evenodd" fill="none" stroke="#a46745" stroke-miterlimit="22.93" stroke-width="2" />
        <path class="cls-2" d="m109.84 119.87c-1.14 0-2.07-.92-2.07-2.06s.92-2.07 2.07-2.07 2.06.92 2.06 2.07-.92 2.06-2.06 2.06Z" fill-rule="evenodd" fill="none" stroke="#a46745" stroke-miterlimit="22.93" stroke-width="2" />
      </g>
      <g stroke-width="2">
        <path class="cls-2" d="m93.94 77.36c-.81.81-2.11.81-2.92 0-.81-.81-.81-2.11 0-2.92.81-.81 2.11-.81 2.92 0 .81.81.81 2.11 0 2.92Z" fill-rule="evenodd" fill="none" stroke="#a46745" stroke-miterlimit="22.93" stroke-width="2" />
        <path class="cls-2" d="m128.66 112.08c-.81.81-2.11.81-2.92 0-.81-.81-.81-2.11 0-2.92.81-.81 2.11-.81 2.92 0 .81.81.81 2.11 0 2.92Z" fill-rule="evenodd" fill="none" stroke="#a46745" stroke-miterlimit="22.93" stroke-width="2" />
      </g>
      <g stroke-width="2">
        <path class="cls-2" d="m87.35 93.26c0 1.14-.92 2.06-2.06 2.06s-2.06-.92-2.06-2.06.92-2.06 2.06-2.06 2.06.92 2.06 2.06Z" fill-rule="evenodd" fill="none" stroke="#a46745" stroke-miterlimit="22.93" stroke-width="2" />
        <path class="cls-2" d="m136.45 93.26c0 1.14-.92 2.06-2.07 2.06s-2.06-.92-2.06-2.06.92-2.06 2.06-2.06 2.07.92 2.07 2.06Z" fill-rule="evenodd" fill="none" stroke="#a46745" stroke-miterlimit="22.93" stroke-width="2" />
      </g>
      <g stroke-width="2">
        <path class="cls-2" d="m93.94 109.16c.81.81.81 2.11 0 2.92-.81.81-2.11.81-2.92 0s-.81-2.11 0-2.92c.81-.81 2.11-.81 2.92 0Z" fill-rule="evenodd" fill="none" stroke="#a46745" stroke-miterlimit="22.93" stroke-width="2" />
        <path class="cls-2" d="m128.66 74.44c.81.81.81 2.11 0 2.92-.81.81-2.11.81-2.92 0-.81-.81-.81-2.11 0-2.92.81-.81 2.11-.81 2.92 0Z" fill-rule="evenodd" fill="none" stroke="#a46745" stroke-miterlimit="22.93" stroke-width="2" />
      </g>
    </g>
  </g>
  <path text="Madras" fill="#a46745" space="preserve" text-anchor="middle" offset="0.5" font-scale="contain" font-size="45" font-family="Arima Madurai" transform="matrix(2.0698370933532715, 0, 0, 2.0698370933532715, 256.44915771484375, 356.3371276855469)" data-fl-textpath="" font-style="normal" font-weight="700" d="M-44.015-5.89Q-44.015-2.52 -43.245-0.54L-43.245-0.54Q-44.505 0.58 -46.125 0.58L-46.125 0.58Q-47.345 0.58 -48.085-0.11Q-48.825-0.81 -48.825-2.02L-48.825-2.02L-48.875-25.7L-57.465-4.18Q-58.995-3.65 -60.215-3.65L-60.215-3.65Q-61.115-3.65 -62.095-4L-62.095-4Q-66.825-13.37 -71.505-25.7L-71.505-25.7L-71.465-5.85Q-71.465-2.16 -70.745-0.04L-70.745-0.04Q-71.465 0.58 -72.585 0.58L-72.585 0.58Q-74.295 0.58 -74.295-1.48L-74.295-1.48L-74.295-25.47Q-74.295-29.34 -74.605-31.14L-74.605-31.14Q-73.845-31.81 -71.195-31.81L-71.195-31.81Q-70.295-31.81 -69.685-31.59Q-69.075-31.36 -68.585-30.87L-68.585-30.87Q-63.135-17.86 -59.085-8.32L-59.085-8.32Q-55.625-17.01 -50.215-31.32L-50.215-31.32Q-48.915-31.81 -47.115-31.81L-47.115-31.81Q-45.985-31.81 -45.065-31.45Q-44.145-31.09 -44.015-30.6L-44.015-30.6L-44.015-5.89ZM-15.71-4Q-15.17-3.28 -15.17-2.34L-15.17-2.34Q-15.17-1.17 -16.2-0.36Q-17.24 0.45 -18.85 0.45L-18.85 0.45Q-21.06 0.45 -22.19-1.06Q-23.31-2.56 -23.35-5.94L-23.35-5.94Q-24.71-3.01 -27.05-1.26Q-29.39 0.49 -32.4 0.49L-32.4 0.49Q-35.01 0.49 -36.61-0.92Q-38.21-2.34 -38.21-4.77L-38.21-4.77Q-38.21-7.6 -36.04-9.45Q-33.88-11.29 -30.51-12.24L-30.51-12.24Q-27.14-13.18 -23.62-13.09L-23.62-13.09L-23.62-14.22Q-23.62-18.13 -24.71-19.98Q-25.79-21.82 -28.31-21.82L-28.31-21.82Q-30.01-21.82 -31.07-21.02Q-32.13-20.2 -32.13-18.36L-32.13-18.36Q-32.13-17.32 -31.73-16.43Q-31.32-15.52 -30.38-15.07L-30.38-15.07Q-30.83-14.58 -31.57-14.33Q-32.31-14.08 -33.12-14.08L-33.12-14.08Q-34.92-14.08 -36.02-15.28Q-37.13-16.47 -37.13-18.18L-37.13-18.18Q-37.13-20.84 -34.7-22.25Q-32.27-23.67 -27.99-23.67L-27.99-23.67Q-23.13-23.67 -20.86-21.35Q-18.58-19.04 -18.58-13.95L-18.58-13.95L-18.58-5.67Q-18.58-3.28 -17.06-3.28L-17.06-3.28Q-16.69-3.28 -16.31-3.46Q-15.93-3.65 -15.71-4L-15.71-4ZM-30.15-2.79Q-28.67-2.79 -27.11-3.98Q-25.56-5.17 -24.53-7.15Q-23.49-9.13 -23.49-11.38L-23.49-11.38Q-25.07-11.47 -26.68-11.23Q-28.31-10.98 -29.48-10.44L-29.48-10.44Q-31.05-9.76 -31.93-8.62Q-32.81-7.47 -32.81-5.94L-32.81-5.94Q-32.81-4.59 -32.15-3.69Q-31.5-2.79 -30.15-2.79L-30.15-2.79ZM 9.765-3.92Q 10.305-3.1  10.305-2.21L 10.305-2.21Q 10.305-1.08  9.335-0.36Q 8.375 0.36  6.885 0.36L 6.885 0.36Q 2.925 0.36  2.565-5.44L 2.565-5.44Q 0.405 0.58 -5.175 0.58L-5.175 0.58Q-9.365 0.58 -11.205-2.54Q-13.055-5.67 -13.055-10.57L-13.055-10.57Q-13.055-16.83 -10.575-20.25Q-8.095-23.67 -3.515-23.67L-3.515-23.67Q-1.345-23.67  0.135-22.86Q 1.625-22.05  2.295-20.56L 2.295-20.56L 2.295-24.43Q 2.295-28.98  1.445-31.81L 1.445-31.81Q 2.695-32.94  4.275-32.94L 4.275-32.94Q 5.535-32.94  6.345-32.22Q 7.155-31.5  7.155-30.33L 7.155-30.33L 7.105-5.67Q 7.105-3.33  8.595-3.33L 8.595-3.33Q 9.445-3.33  9.765-3.92L 9.765-3.92ZM-3.775-2.16Q-0.945-2.16  0.625-5.67Q 2.205-9.18  2.205-14.13L 2.205-14.13Q 2.205-17.23  1.215-19.15Q 0.225-21.06 -2.425-21.06L-2.425-21.06Q-7.785-21.06 -7.785-10.71L-7.785-10.71Q-7.785-6.57 -6.925-4.37Q-6.075-2.16 -3.775-2.16L-3.775-2.16ZM 25.38-23.67Q 27.86-23.67  29.38-22.36Q 30.91-21.06  30.91-18.77L 30.91-18.77Q 30.91-17.05  29.93-16.02Q 28.93-14.98  27.45-14.98L 27.45-14.98Q 26.05-14.98  25.42-15.71L 25.42-15.71Q 25.92-16.52  26.1-17.17Q 26.28-17.82  26.28-18.68L 26.28-18.68Q 26.28-21.24  24.03-21.24L 24.03-21.24Q 22.23-21.24  21.13-18.61Q 20.03-15.97  20.03-10.71L 20.03-10.71L 20.03-9Q 20.03-5  20.16-3.49Q 20.29-1.98  20.83-0.63L 20.83-0.63Q 20.38-0.22  19.66 0.09Q 18.94 0.4  18 0.45L 18 0.45Q 16.79 0.45  15.95-0.32Q 15.12-1.08  15.12-2.38L 15.12-2.38L 15.12-17.59Q 15.12-18.81  14.83-19.37Q 14.53-19.93  13.9-19.93L 13.9-19.93Q 13.05-19.93  12.73-19.3L 12.73-19.3Q 12.15-20.16  12.15-21.02L 12.15-21.02Q 12.15-22.18  13-22.93Q 13.86-23.67  15.39-23.67L 15.39-23.67Q 17.23-23.67  18.31-22.41Q 19.39-21.15  19.44-18.68L 19.44-18.68Q 21.01-23.67  25.38-23.67L 25.38-23.67ZM 56.065-4Q 56.605-3.28  56.605-2.34L 56.605-2.34Q 56.605-1.17  55.575-0.36Q 54.535 0.45  52.925 0.45L 52.925 0.45Q 50.715 0.45  49.585-1.06Q 48.465-2.56  48.425-5.94L 48.425-5.94Q 47.065-3.01  44.725-1.26Q 42.385 0.49  39.375 0.49L 39.375 0.49Q 36.765 0.49  35.165-0.92Q 33.565-2.34  33.565-4.77L 33.565-4.77Q 33.565-7.6  35.735-9.45Q 37.895-11.29  41.265-12.24L 41.265-12.24Q 44.635-13.18  48.155-13.09L 48.155-13.09L 48.155-14.22Q 48.155-18.13  47.065-19.98Q 45.985-21.82  43.465-21.82L 43.465-21.82Q 41.765-21.82  40.705-21.02Q 39.645-20.2  39.645-18.36L 39.645-18.36Q 39.645-17.32  40.045-16.43Q 40.455-15.52  41.395-15.07L 41.395-15.07Q 40.945-14.58  40.205-14.33Q 39.465-14.08  38.655-14.08L 38.655-14.08Q 36.855-14.08  35.755-15.28Q 34.645-16.47  34.645-18.18L 34.645-18.18Q 34.645-20.84  37.075-22.25Q 39.505-23.67  43.785-23.67L 43.785-23.67Q 48.645-23.67  50.915-21.35Q 53.195-19.04  53.195-13.95L 53.195-13.95L 53.195-5.67Q 53.195-3.28  54.715-3.28L 54.715-3.28Q 55.085-3.28  55.465-3.46Q 55.845-3.65  56.065-4L 56.065-4ZM 41.625-2.79Q 43.105-2.79  44.665-3.98Q 46.215-5.17  47.245-7.15Q 48.285-9.13  48.285-11.38L 48.285-11.38Q 46.705-11.47  45.095-11.23Q 43.465-10.98  42.295-10.44L 42.295-10.44Q 40.725-9.76  39.845-8.62Q 38.965-7.47  38.965-5.94L 38.965-5.94Q 38.965-4.59  39.625-3.69Q 40.275-2.79  41.625-2.79L 41.625-2.79ZM 67.01 0.58Q 62.77 0.58  60.62-0.85Q 58.45-2.29  58.45-4.72L 58.45-4.72Q 58.45-5.94  59.15-6.79Q 59.85-7.65  61.34-7.65L 61.34-7.65Q 61.6-7.65  62.23-7.56L 62.23-7.56Q 62.1-7.02  62.1-6.57L 62.1-6.57Q 62.1-6.03  62.23-5.4L 62.23-5.4Q 62.46-3.6  63.83-2.48Q 65.2-1.35  67.59-1.35L 67.59-1.35Q 69.7-1.35  71.01-2.14Q 72.31-2.92  72.31-4.46L 72.31-4.46Q 72.31-5.49  71.71-6.28Q 71.1-7.06  70.2-7.6Q 69.3-8.14  67.63-8.96L 67.63-8.96Q 67.27-9.09  66.55-9.45L 66.55-9.45Q 64.12-10.57  62.71-11.45Q 61.29-12.33  60.28-13.81Q 59.26-15.3  59.26-17.46L 59.26-17.46Q 59.26-20.61  61.69-22.16Q 64.12-23.71  67.86-23.71L 67.86-23.71Q 71.6-23.71  73.76-22.57Q 75.92-21.42  75.92-19.26L 75.92-19.26Q 75.92-18.27  75.35-17.57Q 74.79-16.88  73.58-16.83L 73.58-16.83Q 73.35-16.79  72.99-16.79L 72.99-16.79Q 72.76-16.79  72.13-16.88L 72.13-16.88Q 72.18-17.14  72.18-17.68L 72.18-17.68Q 72.18-18.68  71.91-19.17L 71.91-19.17Q 71.64-20.43  70.54-21.13Q 69.43-21.82  67.68-21.82L 67.68-21.82Q 66.01-21.82  64.87-21.15Q 63.72-20.47  63.72-19.08L 63.72-19.08Q 63.72-17.82  64.46-16.92Q 65.2-16.02  66.28-15.39Q 67.36-14.76  69.35-13.81L 69.35-13.81Q 72.09-12.51  73.44-11.72Q 74.79-10.93  75.87-9.58Q 76.95-8.23  76.95-6.3L 76.95-6.3Q 76.95-3.42  74.54-1.42Q 72.13 0.58  67.01 0.58L 67.01 0.58Z" />
  <path text="Delights" fill="#a46745" space="preserve" text-anchor="middle" offset="0.5" font-scale="contain" font-size="45" font-family="Arima Madurai" transform="matrix(2.0698370933532715, 0, 0, 2.0698370933532715, 256.8320617675781, 440.0851135253906)" data-fl-textpath="" font-style="normal" font-weight="700" d="M-75.24 0Q-76.55 0 -77.33-0.7Q-78.12-1.4 -78.12-2.56L-78.12-2.56L-78.17-25.38Q-78.17-25.65 -78.17-26.98Q-78.17-28.3 -78.3-29.47Q-78.44-30.64 -78.71-31.41L-78.71-31.41Q-75.91-31.77 -68.99-31.77L-68.99-31.77Q-62.33-31.77 -58.79-27.79Q-55.26-23.8 -55.26-15.97L-55.26-15.97Q-55.26 0 -68.71 0L-68.71 0L-75.24 0ZM-73.17-1.93L-68.99-1.93Q-64.76-1.93 -62.75-5.11Q-60.75-8.28 -60.75-15.66L-60.75-15.66Q-60.75-22.99 -62.78-26.41Q-64.8-29.83 -68.99-29.83L-68.99-29.83L-73.17-29.83L-73.17-1.93ZM-32.225-6.21Q-31.495-5.89 -31.495-5.08L-31.495-5.08Q-31.495-4.54 -31.815-3.78L-31.815-3.78Q-32.675-1.67 -34.855-0.54Q-37.035 0.58 -40.095 0.58L-40.095 0.58Q-45.225 0.58 -48.175-2.56Q-51.125-5.71 -51.125-11.52L-51.125-11.52Q-51.125-17.23 -48.245-20.45Q-45.365-23.67 -40.005-23.67L-40.005-23.67Q-36.085-23.67 -33.665-21.94Q-31.235-20.2 -31.235-17.01L-31.235-17.01Q-31.235-13.68 -33.905-11.9Q-36.585-10.13 -41.175-10.13L-41.175-10.13Q-43.785-10.13 -45.815-10.35L-45.815-10.35Q-45.495-6.17 -43.695-4.37Q-41.895-2.56 -38.795-2.56L-38.795-2.56Q-36.355-2.56 -34.625-3.55Q-32.895-4.54 -32.225-6.21L-32.225-6.21ZM-40.185-21.82Q-42.835-21.82 -44.345-19.33Q-45.855-16.83 -45.855-12.24L-45.855-12.24Q-44.685-12.11 -43.475-12.11L-43.475-12.11Q-40.415-12.11 -38.475-13.32Q-36.535-14.54 -36.535-17.77L-36.535-17.77Q-36.535-19.98 -37.575-20.9Q-38.615-21.82 -40.185-21.82L-40.185-21.82ZM-21.33 0.45Q-23.72 0.45 -25-1.06Q-26.28-2.56 -26.28-5.26L-26.28-5.26L-26.28-30.33Q-26.28-31.54 -25.49-32.24Q-24.71-32.94 -23.44-32.94L-23.44-32.94Q-21.78-32.94 -20.65-31.81L-20.65-31.81Q-21.11-30.2 -21.24-28.33Q-21.38-26.46 -21.38-23.04L-21.38-23.04L-21.38-5.67Q-21.38-3.28 -19.76-3.28L-19.76-3.28Q-19.31-3.28 -18.88-3.46Q-18.45-3.65 -18.27-4L-18.27-4Q-17.69-3.28 -17.69-2.34L-17.69-2.34Q-17.69-1.13 -18.77-0.34Q-19.85 0.45 -21.33 0.45L-21.33 0.45ZM-10.89-26.46Q-12.15-26.46 -13.03-27.31Q-13.91-28.17 -13.91-29.38L-13.91-29.38Q-13.91-30.64 -13.03-31.52Q-12.15-32.4 -10.89-32.4L-10.89-32.4Q-9.68-32.4 -8.8-31.52Q-7.92-30.64 -7.92-29.38L-7.92-29.38Q-7.92-28.17 -8.8-27.31Q-9.68-26.46 -10.89-26.46L-10.89-26.46ZM-8.24-5.89Q-8.24-2.38 -7.52-0.54L-7.52-0.54Q-8.78 0.58 -10.35 0.58L-10.35 0.58Q-11.57 0.58 -12.33-0.11Q-13.1-0.81 -13.1-2.02L-13.1-2.02L-13.14-17.23Q-13.14-20.52 -13.86-22.63L-13.86-22.63Q-12.51-23.71 -11.12-23.71L-11.12-23.71Q-9.9-23.71 -9.11-23.02Q-8.33-22.32 -8.33-21.11L-8.33-21.11L-8.24-5.89ZM 5.265 10.26Q 1.705 10.26 -0.585 8.96Q-2.885 7.65 -2.885 5L-2.885 5Q-2.885 3.38 -1.895 2.41Q-0.895 1.44  0.675 1.44L 0.675 1.44Q 2.295 1.44  2.975 2.29L 2.975 2.29Q 1.665 3.33  1.665 5.22L 1.665 5.22Q 1.665 6.79  2.655 7.69Q 3.645 8.59  5.395 8.59L 5.395 8.59Q 8.685 8.59  10.325 5.94Q 11.975 3.28  11.975-1.57L 11.975-1.57L 11.975-4.81Q 11.205-2.48  9.385-1.21Q 7.565 0.04  4.905 0.04L 4.905 0.04Q 1.125 0.04 -0.965-2.65Q-3.065-5.35 -3.065-11.16L-3.065-11.16Q-3.065-16.7 -0.585-20.18Q 1.895-23.67  7.605-23.67L 7.605-23.67Q 10.345-23.67  12.805-22.9Q 15.255-22.14  16.825-20.7L 16.825-20.7L 16.825-2.02Q 16.825 10.26  5.265 10.26L 5.265 10.26ZM 6.345-2.38Q 9.135-2.38  10.505-4.84Q 11.885-7.29  11.925-11.16L 11.925-11.16L 11.975-20.52Q 11.295-21.15  10.165-21.49Q 9.045-21.82  7.785-21.82L 7.785-21.82Q 4.545-21.82  3.355-18.92Q 2.155-16.02  2.155-10.71L 2.155-10.71Q 2.155-6.17  3.125-4.27Q 4.095-2.38  6.345-2.38L 6.345-2.38ZM 42.025-5.89Q 42.025-2.38  42.755-0.54L 42.755-0.54Q 41.535 0.58  39.955 0.58L 39.955 0.58Q 38.705 0.58  37.915-0.14Q 37.125-0.85  37.125-2.02L 37.125-2.02L 37.125-13.77Q 37.125-17.59  36.245-19.42Q 35.365-21.24  33.165-21.24L 33.165-21.24Q 31.725-21.24  30.485-20.09Q 29.245-18.95  28.485-16.58Q 27.715-14.22  27.715-10.71L 27.715-10.71Q 27.715-5.4  27.835-3.69Q 27.945-1.98  28.535-0.49L 28.535-0.49Q 28.125-0.09  27.405 0.25Q 26.685 0.58  25.745 0.58L 25.745 0.58Q 24.485 0.58  23.695-0.18Q 22.905-0.94  22.905-2.25L 22.905-2.25L 22.855-30.33Q 22.855-31.59  23.605-32.24Q 24.345-32.89  25.605-32.89L 25.605-32.89Q 26.505-32.89  27.295-32.56Q 28.075-32.22  28.575-31.81L 28.575-31.81Q 28.075-30.2  27.895-28.13Q 27.715-26.05  27.675-22.77L 27.675-22.77L 27.675-18.81Q 28.615-21.15  30.445-22.41Q 32.265-23.67  34.785-23.67L 34.785-23.67Q 38.475-23.67  40.225-21.38Q 41.985-19.08  41.985-14.49L 41.985-14.49L 42.025-5.89ZM 54.76-23.04Q 55.62-23.04  57.1-23.09Q 58.59-23.13  59.44-23.18L 59.44-23.18L 59.4-21.96Q 59.35-21.38  59.02-21.04Q 58.68-20.7  58.14-20.7L 58.14-20.7L 53.91-20.7L 53.91-19.21L 53.87-5.67Q 53.87-3.24  55.98-3.24L 55.98-3.24Q 56.61-3.24  57.17-3.44Q 57.73-3.65  57.91-4L 57.91-4Q 58.5-3.15  58.5-2.34L 58.5-2.34Q 58.5-1.08  57.26-0.29Q 56.02 0.49  54.09 0.49L 54.09 0.49Q 51.66 0.49  50.31-1.03Q 48.96-2.56  48.96-5.26L 48.96-5.26L 48.96-20.7L 48.33-20.7Q 47.74-20.7  46.98-20.65Q 46.22-20.61  45.63-20.52L 45.63-20.52L 45.67-21.82Q 45.72-22.41  46.08-22.72Q 46.44-23.04  46.98-23.04L 46.98-23.04L 48.96-23.04L 48.96-26.46Q 48.96-27.63  49.77-28.33Q 50.58-29.02  51.84-29.02L 51.84-29.02Q 53.41-29.02  54.63-27.95L 54.63-27.95Q 54.09-25.96  53.96-23.04L 53.96-23.04L 54.76-23.04ZM 70.745 0.58Q 66.505 0.58  64.355-0.85Q 62.185-2.29  62.185-4.72L 62.185-4.72Q 62.185-5.94  62.885-6.79Q 63.585-7.65  65.075-7.65L 65.075-7.65Q 65.335-7.65  65.965-7.56L 65.965-7.56Q 65.835-7.02  65.835-6.57L 65.835-6.57Q 65.835-6.03  65.965-5.4L 65.965-5.4Q 66.195-3.6  67.565-2.48Q 68.935-1.35  71.325-1.35L 71.325-1.35Q 73.435-1.35  74.745-2.14Q 76.045-2.92  76.045-4.46L 76.045-4.46Q 76.045-5.49  75.445-6.28Q 74.835-7.06  73.935-7.6Q 73.035-8.14  71.365-8.96L 71.365-8.96Q 71.005-9.09  70.285-9.45L 70.285-9.45Q 67.855-10.57  66.445-11.45Q 65.025-12.33  64.015-13.81Q 62.995-15.3  62.995-17.46L 62.995-17.46Q 62.995-20.61  65.425-22.16Q 67.855-23.71  71.595-23.71L 71.595-23.71Q 75.335-23.71  77.495-22.57Q 79.655-21.42  79.655-19.26L 79.655-19.26Q 79.655-18.27  79.085-17.57Q 78.525-16.88  77.315-16.83L 77.315-16.83Q 77.085-16.79  76.725-16.79L 76.725-16.79Q 76.495-16.79  75.865-16.88L 75.865-16.88Q 75.915-17.14  75.915-17.68L 75.915-17.68Q 75.915-18.68  75.645-19.17L 75.645-19.17Q 75.375-20.43  74.275-21.13Q 73.165-21.82  71.415-21.82L 71.415-21.82Q 69.745-21.82  68.605-21.15Q 67.455-20.47  67.455-19.08L 67.455-19.08Q 67.455-17.82  68.195-16.92Q 68.935-16.02  70.015-15.39Q 71.095-14.76  73.085-13.81L 73.085-13.81Q 75.825-12.51  77.175-11.72Q 78.525-10.93  79.605-9.58Q 80.685-8.23  80.685-6.3L 80.685-6.3Q 80.685-3.42  78.275-1.42Q 75.865 0.58  70.745 0.58L 70.745 0.58Z" />
</svg>